<svg id="Layer_1" data-name="Layer 1" xmlns="http://www.w3.org/2000/svg" viewBox="0 0 616 559"><defs><style>.cls-1{fill:#0086f1;}</style></defs><path class="cls-1" d="M146,102c7.56-4.72,16.82-4.87,25.45-4.53a8.07,8.07,0,0,1,7.57,5.06,46.06,46.06,0,0,1,.13,12c-.28,2.73-3,4.72-5.63,4.77-4.78.51-10.53-1-14.26,2.88-2.92,2.13-3.95,5.72-3.84,9.2-.08,28,0,56.07,0,84.1a190.56,190.56,0,0,1-6,39c-2.85,9.24-7.16,18.29-14.13,25.14,3.65,3.1,7.1,6.58,9.17,11,7.39,14.45,10.1,30.86,11,46.93-.1,29-.32,58-.46,87a13.31,13.31,0,0,0,5.85,11.71c4.47,2.68,9.78,1.45,14.7,1.68,2.44-.17,4,2.36,3.91,4.55a130.6,130.6,0,0,1-.21,14.27c-.36,3.1-3.69,5-6.63,4.76-9.15-.15-19-.94-26.52-6.7-9.21-6.23-14.57-17.22-14.61-28.24-.52-33-.77-66-1.33-99-1.05-11.5-5.42-23-13.27-31.56a15.42,15.42,0,0,0-9.42-4.69c0-8.48,0-16.94,0-25.42a15.61,15.61,0,0,0,10.1-5.43,52.76,52.76,0,0,0,12.9-33.06c.06-32.69-.06-65.38.05-98.07C130.22,118.41,136.6,107.63,146,102Z"/><path class="cls-1" d="M436.6,112.56c-.2-5.19-1.07-12.5,5-14.67,8.79-.74,18.26-1,26.34,3.11,11,5.17,18,17.39,17.61,29.43q0,43.08,0,86.16c0,7.32-.44,14.76,1.46,21.92,2.41,9,6.71,17.65,13.5,24.12,2.17,2.11,5.19,2.79,8.06,3.43v25c-8.25,1.45-13.15,8.91-16.79,15.73-3.48,7.4-6.06,15.43-6,23.68q-.56,46.58-1.15,93.14c0,6.3-.76,12.76-3.68,18.43A34.59,34.59,0,0,1,464.75,458c-7.23,3.32-15.41,3.54-23.22,3.29-2.8-.09-4.94-2.88-4.86-5.59a118.66,118.66,0,0,1,.14-14.85c1.56-4.47,7.24-2.5,10.79-2.9,7,.93,13.6-5.47,13.45-12.39-.05-29.33-.35-58.65-.43-88,.87-16.59,3.68-33.57,11.7-48.31,2-3.88,5.15-6.94,8.4-9.75-7.32-6.95-11.61-16.43-14.4-26a194.07,194.07,0,0,1-5.69-37c-.12-28.39,0-56.79-.07-85.17.05-3.45-.92-7-3.77-9.2-4.38-4.28-10.91-1.77-16.21-3.17A6.21,6.21,0,0,1,436.6,112.56Z"/><path class="cls-1" d="M200.77,175.89c20.35-31,54.61-52.93,91.65-56.9,32.59-4.47,66.58,5,92.76,24.78,25.73,19.53,44.08,48.81,49.47,80.76,3,18.91,2.61,38.56-3,57-9.37,35-34.63,65-67.11,80.87,0,9.08,0,18.18,0,27.27-.05,2.17,0,4.68-1.66,6.36-1.38,1.5-3.61,1.4-5.44,1.84-31.5,5-62.92,10.47-94.43,15.27-1.83-1.42-4.13-3-4-5.59-.16-11.89,0-23.77,0-35.66-14.9-18.25-24.14-41.53-23.46-65.29.42-25.67,12.48-50.45,31.27-67.74,19.58-18.24,47-28.26,73.78-25.37,7.65.37,14.92,2.84,22.31,4.61,2.92,12.93,5.08,26.27,3.57,39.54a82.71,82.71,0,0,1-7.13,26.7c-5.28,12.49-14.74,22.77-25.68,30.58a338.77,338.77,0,0,0-37.3,27.47c-6.39,6.14-13.3,12.56-16,21.27-.89,8.5.06,17.13-.49,25.67,21.16-3.8,42.44-7,63.66-10.41,0-7.42,0-14.83,0-22.24.05-2.54-.17-5.4,1.62-7.45,1.41-2.09,3.84-3,6.05-4a109.7,109.7,0,0,0,59.35-66.58c7.85-24.23,6.12-51.16-3.67-74.57a112,112,0,0,0-39.59-47.28c-10.63-6.4-21.87-12.26-34.12-14.76-22.52-5.25-46.92-3.73-68,6-26.64,11.29-47.8,34.15-57.9,61.16-11.3,30.13-8.22,65.42,8.71,92.86,2.19,3.82,5.55,7.78,4.39,12.51a10.47,10.47,0,0,1-11.9,8.7c-5-.76-7.83-5.6-10.14-9.62C188,297,182.16,278,180,258.65,177.46,229.78,184.57,200,200.77,175.89Zm82.75,76.51c-14.95,12.09-24.45,30.24-27.1,49.17a68.8,68.8,0,0,0,9.38,44c14.31-21.38,36.79-34.91,57.58-49.14,7.1-5.65,13.78-12.47,17.16-21a73.2,73.2,0,0,0,4.29-40.21A73.78,73.78,0,0,0,283.52,252.4Z"/><path class="cls-1" d="M351,408.31c3.92-.31,8.38-2.36,12,.07,3.18,3.25,1.74,8.24,2,12.31.3,3.24-1.52,6.84-5,7.2q-47.26,7.23-94.59,14.17c-2.77.78-6.08-1.07-6.45-4a80,80,0,0,1-.18-11.48,5,5,0,0,1,4.72-4.95C292.65,417.12,321.85,412.77,351,408.31Z"/></svg>