<svg id="图层_1" data-name="图层 1" xmlns="http://www.w3.org/2000/svg" viewBox="0 0 738.82 576.27"><defs><style>.cls-1{fill:#0086f1}.cls-2{fill:#ccc}.cls-3{fill:#3f3d56}.cls-4{fill:#2f2e41}.cls-5{fill:#e6e6e6}.cls-6{isolation:isolate;opacity:.2}.cls-8{fill:#008ded}</style></defs><path class="cls-1" d="M599.8 170.68a17.3 17.3 0 0 0-4.42 2.18c-6 4.13-10.55 13.12-8.54 18.29 6 15.45 76 3 81.95 1.87a36.5 36.5 0 0 0-2.79-6.37 43.51 43.51 0 0 0-5.76-7.77c-4.39-4.62-27.93-10.2-60.44-8.2z"/><path class="cls-2" d="M595.31 172.86a33.94 33.94 0 0 1 11.47-4.73 77.9 77.9 0 0 1 41.22 1.28l-.24-.19a45.89 45.89 0 0 1 14.7 12.22zM672.3 220.17l-.72 10.76a173.26 173.26 0 0 1-2.45 22.38c-1.22 6.19-3.16 12.33-6.63 17.6s-8.62 9.61-14.72 11.21a27 27 0 0 1-11.42.25c-7.13-4.05-12 1.13-4.84 6.4a59.23 59.23 0 0 0 5 3.31l3.26 49.92-60-13 11.71-66.34a40.08 40.08 0 0 1-4.9-5.35c-6.71-8.91-9-20.52-8.58-31.66s3.42-22 6.37-32.77a83.5 83.5 0 0 1 2.72-8.61c1.31.54 2.64 1 4 1.44 8.63 2.62 17.8 2.83 26.82 2.82q24.08 0 48.09-1.88a46.19 46.19 0 0 1 6.53 19.94 93.26 93.26 0 0 1-.24 13.58z"/><path class="cls-3" d="M42.91 392.92a277.32 277.32 0 0 0 24.85 28.95h603.3a277.32 277.32 0 0 0 24.85-28.95z"/><path class="cls-4" d="M228.07 296.11v102.56h71.85V296.11a3.42 3.42 0 0 0-2.43-3.3 3.08 3.08 0 0 0-1-.16h-65a3.44 3.44 0 0 0-3.47 3.43zm28 35.24a7.67 7.67 0 0 1 15.34 0v11.9a7.67 7.67 0 0 1-15.34 0z"/><path class="cls-3" d="M227.85 395.39v9.89a2 2 0 0 0 1.93 1.94h68.43a2 2 0 0 0 1.93-1.94v-9.89zM115 141.59v187.26a9 9 0 0 0 9 9h277.5a9 9 0 0 0 9-9V141.59a9 9 0 0 0-9-9H124a9 9 0 0 0-9 9z"/><path class="cls-1" d="M121.55 143.92v182.62a4.83 4.83 0 0 0 4.81 4.81h272.87a4.83 4.83 0 0 0 4.81-4.81V143.92a4.81 4.81 0 0 0-4.8-4.82H126.36a4.81 4.81 0 0 0-4.81 4.81z"/><path class="cls-4" d="M177.19 409.55a3 3 0 0 0 2.32 1.11h162.34a3 3 0 0 0 3-3 3.15 3.15 0 0 0-.06-.61l-2.52-12a3 3 0 0 0-1.86-2.17 2.77 2.77 0 0 0-1.06-.2H182a2.77 2.77 0 0 0-1.06.2 3 3 0 0 0-1.86 2.17l-2.52 12a3 3 0 0 0 .63 2.5z"/><rect class="cls-3" x="333.18" y="394.87" width="5" height="3" rx=".49"/><rect class="cls-3" x="323.18" y="394.87" width="5" height="3" rx=".49"/><rect class="cls-3" x="313.18" y="394.87" width="5" height="3" rx=".49"/><rect class="cls-3" x="303.18" y="394.87" width="5" height="3" rx=".49"/><rect class="cls-3" x="293.18" y="394.87" width="5" height="3" rx=".49"/><rect class="cls-3" x="283.18" y="394.87" width="5" height="3" rx=".49"/><rect class="cls-3" x="273.18" y="394.87" width="5" height="3" rx=".49"/><rect class="cls-3" x="263.18" y="394.87" width="5" height="3" rx=".49"/><rect class="cls-3" x="253.18" y="394.87" width="5" height="3" rx=".49"/><rect class="cls-3" x="243.18" y="394.87" width="5" height="3" rx=".49"/><rect class="cls-3" x="233.18" y="394.87" width="5" height="3" rx=".49"/><rect class="cls-3" x="223.18" y="394.87" width="5" height="3" rx=".49"/><rect class="cls-3" x="213.18" y="394.87" width="5" height="3" rx=".49"/><rect class="cls-3" x="203.18" y="394.87" width="5" height="3" rx=".49"/><rect class="cls-3" x="193.18" y="394.87" width="5" height="3" rx=".49"/><rect class="cls-3" x="183.18" y="394.87" width="5" height="3" rx=".49"/><rect class="cls-3" x="333.3" y="399.87" width="5" height="3" rx=".49"/><rect class="cls-3" x="323.3" y="399.87" width="5" height="3" rx=".49"/><rect class="cls-3" x="313.3" y="399.87" width="5" height="3" rx=".49"/><rect class="cls-3" x="303.3" y="399.87" width="5" height="3" rx=".49"/><rect class="cls-3" x="293.3" y="399.87" width="5" height="3" rx=".49"/><rect class="cls-3" x="283.3" y="399.87" width="5" height="3" rx=".49"/><rect class="cls-3" x="273.3" y="399.87" width="5" height="3" rx=".49"/><rect class="cls-3" x="263.3" y="399.87" width="5" height="3" rx=".49"/><rect class="cls-3" x="253.3" y="399.87" width="5" height="3" rx=".49"/><rect class="cls-3" x="243.3" y="399.87" width="5" height="3" rx=".49"/><rect class="cls-3" x="233.3" y="399.87" width="5" height="3" rx=".49"/><rect class="cls-3" x="223.3" y="399.87" width="5" height="3" rx=".49"/><rect class="cls-3" x="213.3" y="399.87" width="5" height="3" rx=".49"/><rect class="cls-3" x="203.3" y="399.87" width="5" height="3" rx=".49"/><rect class="cls-3" x="193.3" y="399.87" width="5" height="3" rx=".49"/><rect class="cls-3" x="183.3" y="399.87" width="5" height="3" rx=".49"/><rect class="cls-3" x="250.3" y="405.87" width="40" height="3" rx=".49"/><path class="cls-3" d="M140.07 164.25H395.4a1 1 0 0 0 0-2H140.07a1 1 0 0 0 0 2z"/><ellipse class="cls-3" cx="378.02" cy="150.96" rx="5.95" ry="6.08"/><ellipse class="cls-3" cx="357.46" cy="150.96" rx="5.95" ry="6.08"/><ellipse class="cls-3" cx="336.9" cy="150.96" rx="5.95" ry="6.08"/><path class="cls-3" d="M151.36 147.49a1.11 1.11 0 0 0 1.09 1.1h14.6a1.11 1.11 0 0 0 0-2.21h-14.6a1.1 1.1 0 0 0-1.09 1.11zM151.36 151.64a1.11 1.11 0 0 0 1.09 1.1h14.6a1.11 1.11 0 0 0 0-2.21h-14.6a1.1 1.1 0 0 0-1.09 1.11zM151.36 155.78a1.1 1.1 0 0 0 1.09 1.11h14.6a1.11 1.11 0 0 0 0-2.21h-14.6a1.09 1.09 0 0 0-1.09 1.09z"/><path class="cls-5" d="M150.63 187.85h5.24a2.88 2.88 0 0 1 2.88 2.88 2.88 2.88 0 0 1-2.88 2.88h-5.24a2.88 2.88 0 0 1-2.88-2.88 2.88 2.88 0 0 1 2.88-2.88zM210.63 187.85h5.24a2.88 2.88 0 0 1 2.88 2.88 2.88 2.88 0 0 1-2.88 2.88h-5.24a2.88 2.88 0 0 1-2.88-2.88 2.88 2.88 0 0 1 2.88-2.88zM227.63 187.85h5.24a2.88 2.88 0 0 1 2.88 2.88 2.88 2.88 0 0 1-2.88 2.88h-5.24a2.88 2.88 0 0 1-2.88-2.88 2.88 2.88 0 0 1 2.88-2.88zM167 187.37h32.6a2.88 2.88 0 0 1 2.88 2.88 2.88 2.88 0 0 1-2.88 2.88H167a2.88 2.88 0 0 1-2.88-2.88 2.88 2.88 0 0 1 2.88-2.88zM247 187.37h32.6a2.88 2.88 0 0 1 2.88 2.88 2.88 2.88 0 0 1-2.88 2.88H247a2.88 2.88 0 0 1-2.88-2.88 2.88 2.88 0 0 1 2.88-2.88zM166.63 200.85h5.24a2.88 2.88 0 0 1 2.88 2.88 2.88 2.88 0 0 1-2.88 2.88h-5.24a2.88 2.88 0 0 1-2.88-2.88 2.88 2.88 0 0 1 2.88-2.88zM226.63 200.85h5.24a2.88 2.88 0 0 1 2.88 2.88 2.88 2.88 0 0 1-2.88 2.88h-5.24a2.88 2.88 0 0 1-2.88-2.88 2.88 2.88 0 0 1 2.88-2.88zM243.63 200.85h5.24a2.88 2.88 0 0 1 2.88 2.88 2.88 2.88 0 0 1-2.88 2.88h-5.24a2.88 2.88 0 0 1-2.88-2.88 2.88 2.88 0 0 1 2.88-2.88zM183 200.37h32.6a2.88 2.88 0 0 1 2.88 2.88 2.88 2.88 0 0 1-2.88 2.88H183a2.88 2.88 0 0 1-2.88-2.88 2.88 2.88 0 0 1 2.88-2.88zM263 200.37h32.6a2.88 2.88 0 0 1 2.88 2.88 2.88 2.88 0 0 1-2.88 2.88H263a2.88 2.88 0 0 1-2.88-2.88 2.88 2.88 0 0 1 2.88-2.88zM182.63 213.85h5.24a2.88 2.88 0 0 1 2.88 2.88 2.88 2.88 0 0 1-2.88 2.88h-5.24a2.88 2.88 0 0 1-2.88-2.88 2.88 2.88 0 0 1 2.88-2.88zM242.63 213.85h5.24a2.88 2.88 0 0 1 2.88 2.88 2.88 2.88 0 0 1-2.88 2.88h-5.24a2.88 2.88 0 0 1-2.88-2.88 2.88 2.88 0 0 1 2.88-2.88zM259.63 213.85h5.24a2.88 2.88 0 0 1 2.88 2.88 2.88 2.88 0 0 1-2.88 2.88h-5.24a2.88 2.88 0 0 1-2.88-2.88 2.88 2.88 0 0 1 2.88-2.88zM199 213.37h32.6a2.88 2.88 0 0 1 2.88 2.88 2.88 2.88 0 0 1-2.88 2.88H199a2.88 2.88 0 0 1-2.88-2.88 2.88 2.88 0 0 1 2.88-2.88zM279 213.37h32.6a2.88 2.88 0 0 1 2.88 2.88 2.88 2.88 0 0 1-2.88 2.88H279a2.88 2.88 0 0 1-2.88-2.88 2.88 2.88 0 0 1 2.88-2.88zM198.63 226.85h5.24a2.88 2.88 0 0 1 2.88 2.88 2.88 2.88 0 0 1-2.88 2.88h-5.24a2.88 2.88 0 0 1-2.88-2.88 2.88 2.88 0 0 1 2.88-2.88zM258.63 226.85h5.24a2.88 2.88 0 0 1 2.88 2.88 2.88 2.88 0 0 1-2.88 2.88h-5.24a2.88 2.88 0 0 1-2.88-2.88 2.88 2.88 0 0 1 2.88-2.88zM275.63 226.85h5.24a2.88 2.88 0 0 1 2.88 2.88 2.88 2.88 0 0 1-2.88 2.88h-5.24a2.88 2.88 0 0 1-2.88-2.88 2.88 2.88 0 0 1 2.88-2.88zM215 226.37h32.6a2.88 2.88 0 0 1 2.88 2.88 2.88 2.88 0 0 1-2.88 2.88H215a2.88 2.88 0 0 1-2.88-2.88 2.88 2.88 0 0 1 2.88-2.88zM210.63 278.54h5.24a2.88 2.88 0 0 1 2.88 2.88 2.88 2.88 0 0 1-2.88 2.88h-5.24a2.88 2.88 0 0 1-2.88-2.88 2.88 2.88 0 0 1 2.88-2.88zM227.63 278.54h5.24a2.88 2.88 0 0 1 2.88 2.88 2.88 2.88 0 0 1-2.88 2.88h-5.24a2.88 2.88 0 0 1-2.88-2.88 2.88 2.88 0 0 1 2.88-2.88zM247 279h32.6a2.88 2.88 0 0 1 2.88 2.88 2.88 2.88 0 0 1-2.88 2.88H247a2.88 2.88 0 0 1-2.88-2.88A2.88 2.88 0 0 1 247 279zM150.63 278.54h5.24a2.88 2.88 0 0 1 2.88 2.88 2.88 2.88 0 0 1-2.88 2.88h-5.24a2.88 2.88 0 0 1-2.88-2.88 2.88 2.88 0 0 1 2.88-2.88zM167 279h32.6a2.88 2.88 0 0 1 2.88 2.88 2.88 2.88 0 0 1-2.88 2.88H167a2.88 2.88 0 0 1-2.88-2.88A2.88 2.88 0 0 1 167 279zM166.63 265.54h5.24a2.88 2.88 0 0 1 2.88 2.88 2.88 2.88 0 0 1-2.88 2.88h-5.24a2.88 2.88 0 0 1-2.88-2.88 2.88 2.88 0 0 1 2.88-2.88zM226.63 265.54h5.24a2.88 2.88 0 0 1 2.88 2.88 2.88 2.88 0 0 1-2.88 2.88h-5.24a2.88 2.88 0 0 1-2.88-2.88 2.88 2.88 0 0 1 2.88-2.88zM243.63 265.54h5.24a2.88 2.88 0 0 1 2.88 2.88 2.88 2.88 0 0 1-2.88 2.88h-5.24a2.88 2.88 0 0 1-2.88-2.88 2.88 2.88 0 0 1 2.88-2.88zM183 266h32.6a2.88 2.88 0 0 1 2.88 2.88 2.88 2.88 0 0 1-2.88 2.88H183a2.88 2.88 0 0 1-2.88-2.88A2.88 2.88 0 0 1 183 266zM182.63 252.54h5.24a2.88 2.88 0 0 1 2.88 2.88 2.88 2.88 0 0 1-2.88 2.88h-5.24a2.88 2.88 0 0 1-2.88-2.88 2.88 2.88 0 0 1 2.88-2.88zM242.63 252.54h5.24a2.88 2.88 0 0 1 2.88 2.88 2.88 2.88 0 0 1-2.88 2.88h-5.24a2.88 2.88 0 0 1-2.88-2.88 2.88 2.88 0 0 1 2.88-2.88zM259.63 252.54h5.24a2.88 2.88 0 0 1 2.88 2.88 2.88 2.88 0 0 1-2.88 2.88h-5.24a2.88 2.88 0 0 1-2.88-2.88 2.88 2.88 0 0 1 2.88-2.88zM199 253h32.6a2.88 2.88 0 0 1 2.88 2.88 2.88 2.88 0 0 1-2.88 2.88H199a2.88 2.88 0 0 1-2.88-2.88A2.88 2.88 0 0 1 199 253zM198.63 239.54h5.24a2.88 2.88 0 0 1 2.88 2.88 2.88 2.88 0 0 1-2.88 2.88h-5.24a2.88 2.88 0 0 1-2.88-2.88 2.88 2.88 0 0 1 2.88-2.88zM258.63 239.54h5.24a2.88 2.88 0 0 1 2.88 2.88 2.88 2.88 0 0 1-2.88 2.88h-5.24a2.88 2.88 0 0 1-2.88-2.88 2.88 2.88 0 0 1 2.88-2.88zM275.63 239.54h5.24a2.88 2.88 0 0 1 2.88 2.88 2.88 2.88 0 0 1-2.88 2.88h-5.24a2.88 2.88 0 0 1-2.88-2.88 2.88 2.88 0 0 1 2.88-2.88zM215 240h32.6a2.88 2.88 0 0 1 2.88 2.88 2.88 2.88 0 0 1-2.88 2.88H215a2.88 2.88 0 0 1-2.88-2.88A2.88 2.88 0 0 1 215 240z"/><path class="cls-3" d="m137 466.35 1.84.92c15.8 7.9 28.44 12.39 45.73 17.31 1.46-16.3 2.87-44.95 4.24-62.71.36-4.61.72-8.48 1.07-11.21a15.11 15.11 0 0 1 .88-4.25l-.06 4.25-.15 11.21-.86 64.13a288.92 288.92 0 0 0 65.84 9.49l3.4.07h4.89a289.93 289.93 0 0 0 69.54-8.43c-.49-16.13-1-44.46-1.45-65.28-.1-4.07-.19-7.86-.29-11.21-.19-7.16-.39-12.32-.58-14.05a4.33 4.33 0 0 1 .39 1 96.07 96.07 0 0 1 1.89 13.08c.35 3.35.7 7.14 1.05 11.21 1.86 21.63 3.8 51 5.8 63.51a286.62 286.62 0 0 0 35-12q9-3.75 17.68-8.09c-1.1-7.2-2.25-15.27-3.43-23.64-.92-6.49-1.87-13.16-2.84-19.75-1.5-10.18-23.79-81.32-25.2-84-1.21-2.31-2.36-4.49-3.45-6.5-2.64-4.88-4.88-8.77-6.54-11.23A55.21 55.21 0 0 0 322.11 298l-.3-.08-.21.09-20.45-6.28-3-.92-2-.62-7.15-5.48-3.85-2.93-3.57-2.78-7.06-5.37-43.71 2.69-8.51 20.49-19.06 7-.33-.15-.29-.12-.3.08A55.3 55.3 0 0 0 173 325.83c-.94 1.41-2.08 3.27-3.37 5.52-1.1 1.91-2.3 4.09-3.6 6.5-1.85 3.43-3.87 7.3-6 11.49l-1.43 2.81c-.89 1.76-1.79 3.55-2.71 5.39-2.13 4.25-4.33 8.69-6.53 13.2-1.91 3.91-3.84 11.95-5.74 22.18-1.57 8.5-3.13 18.52-4.64 28.95-2 13.52.13 29.71-1.66 42.15-.08.79-.2 1.56-.32 2.33z"/><path class="cls-6" d="m346.5 392.87-8.5-32.79-7.5 28.3 16 4.49z"/><path class="cls-4" d="M120.39 371.51c3 41.88-.11 60.32 16.67 94.85a286.48 286.48 0 0 0 47.52 18.22c1.7.48 3.4.94 5.11 1.4a288.92 288.92 0 0 0 65.84 9.49l3.4.07h4.89a289.93 289.93 0 0 0 69.54-8.43q3.42-.84 6.81-1.77a286.62 286.62 0 0 0 35-12q9-3.75 17.68-8.09c1.31-.66 2.62-1.32 3.91-2 6.63-11.66 10.4-25.84 10.48-42.88-4.62-29.37-276.71-74.18-286.85-48.86z"/><path class="cls-6" d="M120.4 378.68c-.16-2.59-.33-5.27-.53-8.06C130 345.3 402.1 390.13 406.69 419.49c0 2.69-.13 5.3-.32 7.85-11.12-28.97-269.61-71.58-285.97-48.66z"/><path class="cls-4" d="M58.74 392.49a6.41 6.41 0 0 0 6.18 4.33l26.49-.68a6.34 6.34 0 0 0 6-4.66l3.74-40.08a9.83 9.83 0 0 0 4.24.87 9.66 9.66 0 1 0 .81-19.3 9.41 9.41 0 0 0-1.3 0 8.49 8.49 0 0 0-1.74.18 6.51 6.51 0 0 0-4.87-2.1l-40.75 1.05a5.59 5.59 0 0 0-1 .13 6.36 6.36 0 0 0-5.09 7.41 6.1 6.1 0 0 0 .22.84zm43.17-43.81 2.67-9.56a6.64 6.64 0 0 0 0-3.37c.13 0 .24-.06.37-.06a6.91 6.91 0 0 1 .33 13.81 6.6 6.6 0 0 1-3.39-.82z"/><path class="cls-3" d="M56.53 332.21c.87 5 10.63 8.45 22.37 7.84 10.79-.49 19.61-4.28 21.23-8.77a6.05 6.05 0 0 0-1.84-.25l-40.75 1.05a5.7 5.7 0 0 0-1.01.13zM574.27 318.9h89v78h-89z"/><path class="cls-2" d="M672 211a47.5 47.5 0 0 0 4.15 28.74c1.61 3.28 3.6 7.23 1.64 10.31a6.33 6.33 0 0 1-4.79 2.65 15.51 15.51 0 0 1-5.58-.72"/><ellipse class="cls-3" cx="593.78" cy="178.45" rx="3" ry="2.5"/><ellipse class="cls-3" cx="604.78" cy="179.45" rx="3" ry="2.5"/><ellipse class="cls-3" cx="615.78" cy="184.45" rx="3" ry="2.5"/><ellipse class="cls-3" cx="628.78" cy="181.45" rx="3" ry="2.5"/><path class="cls-3" d="M410.42 231.82c11.23-4 23.74.28 32.42 10a45.79 45.79 0 0 1 9.93 19.79c2.21 9.09 2.58 18.68 2.81 28.13.26 10.45.48 20.9.72 31.35.23 10 .25 20 .78 29.93.43 8.34 1.48 17 5 24.25A27.94 27.94 0 0 0 476.26 389c5.88 2.53 12.23 3.12 18.4 3.07a111.94 111.94 0 0 0 21.45-2.07c13.48-2.75 26.79-9.77 35-24.25a47.78 47.78 0 0 0 6.11-22.61c.17-9.5-2.21-18.7-4.82-27.48-2.54-8.54-5.28-17-6.89-25.88a139.92 139.92 0 0 1 7.31-74.78 100.82 100.82 0 0 1 11.57-21.68c4.75-6.59 10.64-12 17.64-13.82a16.91 16.91 0 0 1 10.31.53c1.42.54 2-2.3.61-2.84-6.94-2.65-14.47-.64-20.62 4s-10.82 11.29-14.88 18.47c-15.79 28.53-20.45 64.69-12.66 98.15 4.11 17.18 13.06 35.05 9.22 53.64a45.16 45.16 0 0 1-27 32.23c-7.31 3-15 4.31-22.61 5-6.46.56-13 .92-19.44-.14-5.92-1-12-3.27-16.59-8.33-5-5.54-7.32-13.51-8.32-21.68-1.13-9.25-1-18.79-1.18-28.13l-.73-31.86c-.41-18 0-37.93-9.24-52.84-7.45-11.77-18.74-18.51-30.6-18.27a27.59 27.59 0 0 0-8.44 1.58 1.59 1.59 0 0 0-.76 1.85 1.15 1.15 0 0 0 1.29 1h.08z"/><path d="M197.88 209.9a57.57 57.57 0 0 0 114-15.91l-.11-.82a57.57 57.57 0 0 0-113.91 16.72z" style="fill:#ffb6b6"/><path class="cls-4" d="M248.63 257.5c-3-6-6-12.43-5.23-19.08s7.3-13 13.71-11.06c3.82 1.17 6.73 4.93 10.73 5.11 5.5.25 8.63-6.05 10.33-11.29l6.9-21.35c13.31 10.46-3.55-.5 12.94-4.33 6.47-1.5 13-4.41 16.78-9.87s3.73-13.92-1.49-18c-2.56-2-6-2.77-8.41-4.92a9.4 9.4 0 0 1 7.45-16.39l-17.56-2.14 5.2-9.48c-3.76 3-9 3.41-13.73 2.57s-9.19-2.76-13.81-4.05c-22.21-6.15-48 4.76-59 25a22.47 22.47 0 0 0-24.44 7.14c-4.68 6-5.94 13.95-6.09 21.54a93.39 93.39 0 0 0 9.66 43.22c2.07 4.17 4.52 8.26 8 11.32s43.27 19.95 47.86 19.15"/><path class="cls-5" d="M608.78 220.45a29.35 29.35 0 0 1-1 7.69v.15c-2 7.43-6.84 12.65-12.47 12.65s-10.4-5.18-12.45-12.55c-.14-.51-.26-1-.37-1.55s-.25-1.2-.34-1.83-.14-1-.19-1.53c-.07-.72-.12-1.44-.13-2.19v-1.09a30 30 0 0 1 .25-3.79c.07-.53.15-1 .25-1.55s.25-1.23.41-1.83.28-1 .44-1.55.46-1.34.73-2c.17-.41.35-.81.53-1.2 2.46-5.06 6.42-8.35 10.88-8.35 6.17 0 11.37 6.29 13 14.87a.89.89 0 0 0 .06.39 29.92 29.92 0 0 1 .4 5.26z"/><path class="cls-1" d="M584.53 208.74a.8.8 0 0 1-.66.76c.17-.41.35-.81.53-1.2a.84.84 0 0 1 .13.44zM587.55 207.83h8.8a.78.78 0 0 1 .78.78.78.78 0 0 1-.78.77h-8.8a.76.76 0 0 1-.77-.77.76.76 0 0 1 .76-.78zM584.26 212.24a.78.78 0 0 1-.78.78h-.78c.13-.53.28-1 .44-1.55h.34a.76.76 0 0 1 .78.76zM586.66 211.47h1.41a.76.76 0 0 1 .78.76.78.78 0 0 1-.78.78h-1.41a.78.78 0 0 1-.78-.78.76.76 0 0 1 .77-.77zM591.87 211.34h8.8a.76.76 0 0 1 .78.76.78.78 0 0 1-.78.78h-8.8a.78.78 0 0 1-.78-.78.76.76 0 0 1 .77-.77zM586.39 215h1.41a.78.78 0 0 1 .78.78.78.78 0 0 1-.78.78h-1.41a.78.78 0 0 1-.78-.78.78.78 0 0 1 .78-.78zM591 215h1.41a.78.78 0 0 1 .78.78.78.78 0 0 1-.78.78H591a.78.78 0 0 1-.78-.78.78.78 0 0 1 .78-.78zM584.18 215.62a.78.78 0 0 1-.78.78H582c.07-.53.15-1 .25-1.55h1.11a.76.76 0 0 1 .78.74zM596.19 214.85H605a.76.76 0 0 1 .78.76.78.78 0 0 1-.78.78h-8.8a.78.78 0 0 1-.78-.78.76.76 0 0 1 .77-.77z"/><path class="cls-2" d="M584.53 220.74a.76.76 0 0 1-.77.77h-1.42a.83.83 0 0 1-.54-.21v-1.09a.75.75 0 0 1 .55-.23h1.41a.78.78 0 0 1 .77.76zM587.55 219.83h8.8a.78.78 0 0 1 .78.78.78.78 0 0 1-.78.77h-8.8a.76.76 0 0 1-.77-.77.76.76 0 0 1 .76-.78zM584.26 224.24a.78.78 0 0 1-.78.78h-1.36c-.08-.5-.14-1-.19-1.53a.33.33 0 0 1 .14 0h1.41a.77.77 0 0 1 .78.75zM586.66 223.47h1.41a.76.76 0 0 1 .78.76.78.78 0 0 1-.78.78h-1.41a.78.78 0 0 1-.78-.78.76.76 0 0 1 .77-.77zM591.87 223.34h8.8a.76.76 0 0 1 .78.76.78.78 0 0 1-.78.78h-8.8a.78.78 0 0 1-.78-.78.76.76 0 0 1 .77-.77zM586.39 227h1.41a.78.78 0 0 1 .78.78.78.78 0 0 1-.78.78h-1.41a.78.78 0 0 1-.78-.78.78.78 0 0 1 .78-.78zM591 227h1.41a.78.78 0 0 1 .78.78.78.78 0 0 1-.78.78H591a.78.78 0 0 1-.78-.78.78.78 0 0 1 .78-.78zM584.18 227.62a.78.78 0 0 1-.78.78h-.57c-.14-.51-.26-1-.37-1.55h.94a.76.76 0 0 1 .78.74zM596.19 226.85H605a.76.76 0 0 1 .78.76.78.78 0 0 1-.78.78h-8.8a.78.78 0 0 1-.78-.78.76.76 0 0 1 .77-.77z"/><path class="cls-8" d="M71 356a2 2 0 0 1 1.15-.2.34.34 0 0 1 .34.22 1.69 1.69 0 0 1 0 .55.26.26 0 0 1-.26.21 1.08 1.08 0 0 0-.64.13.48.48 0 0 0-.17.42v3.8a8.84 8.84 0 0 1-.28 1.76 2.54 2.54 0 0 1-.64 1.11 1.36 1.36 0 0 1 .42.5 5.18 5.18 0 0 1 .49 2.12v3.93a.6.6 0 0 0 .27.53 1.35 1.35 0 0 0 .66.07.19.19 0 0 1 .18.21v.64a.28.28 0 0 1-.3.21A2 2 0 0 1 71 372a1.55 1.55 0 0 1-.66-1.28c0-1.49 0-3-.06-4.47a2.45 2.45 0 0 0-.6-1.43.7.7 0 0 0-.43-.21v-1.15a.69.69 0 0 0 .46-.24 2.38 2.38 0 0 0 .58-1.5v-4.43A1.43 1.43 0 0 1 71 356zM84.14 356.5c0-.24 0-.57.23-.67a2.31 2.31 0 0 1 1.19.14 1.46 1.46 0 0 1 .8 1.33v3.9a4.2 4.2 0 0 0 .06 1 2.51 2.51 0 0 0 .61 1.09.85.85 0 0 0 .37.15v1.14a1.17 1.17 0 0 0-.76.71 2.49 2.49 0 0 0-.27 1.07c0 1.4 0 2.8-.05 4.21a1.82 1.82 0 0 1-.17.83 1.57 1.57 0 0 1-.74.72 2.28 2.28 0 0 1-1 .15.24.24 0 0 1-.22-.25v-.67c0-.22.33-.12.49-.14a.56.56 0 0 0 .61-.51v-4.05a5 5 0 0 1 .53-2.18 1.5 1.5 0 0 1 .38-.45 2.51 2.51 0 0 1-.65-1.17 8.66 8.66 0 0 1-.26-1.67v-3.85a.52.52 0 0 0-.17-.42c-.2-.19-.5-.08-.74-.14a.27.27 0 0 1-.24-.27z"/><path class="cls-8" d="M73.48 359.36a5.78 5.78 0 0 1 4.15-2.57 5.8 5.8 0 0 1 6.29 7.34 5.81 5.81 0 0 1-3 3.66V369a.38.38 0 0 1-.08.29c-.06.06-.16.06-.24.08-1.43.22-2.85.47-4.27.69-.08-.06-.19-.14-.18-.25v-1.61a4.5 4.5 0 0 1-1.06-3 4.38 4.38 0 0 1 5.75-4A5.09 5.09 0 0 1 81 363a3.39 3.39 0 0 1-.32 1.21 3.24 3.24 0 0 1-1.16 1.38 15.82 15.82 0 0 0-1.68 1.24 2.4 2.4 0 0 0-.73 1V369l2.89-.5v-1a.5.5 0 0 1 .07-.34.71.71 0 0 1 .27-.18 4.86 4.86 0 0 0 .66-8.48 4.81 4.81 0 0 0-1.54-.67 4.83 4.83 0 0 0-5.3 7.19c.1.17.25.35.2.57a.47.47 0 0 1-.54.39c-.23 0-.35-.25-.46-.43a6.11 6.11 0 0 1-.82-2.49 5.83 5.83 0 0 1 .94-3.7zm3.74 3.46A3.48 3.48 0 0 0 76 365a3.05 3.05 0 0 0 .43 2 8.8 8.8 0 0 1 2.6-2.22 2.46 2.46 0 0 0 .77-.95A3.27 3.27 0 0 0 80 362a3.31 3.31 0 0 0-2.78.78zM80.28 369.86c.17 0 .37-.1.54 0s.08.37.09.55a.3.3 0 0 1-.23.33l-4.27.64a.22.22 0 0 1-.28-.16 2.26 2.26 0 0 1 0-.52.21.21 0 0 1 .2-.22z"/></svg>